# Blender 3.3.0
# www.blender.org
mtllib test_cube.mtl
o Cube
v -0.500000 -0.500000 0.500000
v -0.500000 0.500000 0.500000
v -0.500000 -0.500000 -0.500000
v -0.500000 0.500000 -0.500000
v 0.500000 -0.500000 0.500000
v 0.500000 0.500000 0.500000
v 0.500000 -0.500000 -0.500000
v 0.500000 0.500000 -0.500000
vn -1.0000 -0.0000 -0.0000
vn -0.0000 -0.0000 -1.0000
vn 1.0000 -0.0000 -0.0000
vn -0.0000 -0.0000 1.0000
vn -0.0000 -1.0000 -0.0000
vn -0.0000 1.0000 -0.0000
vt 1.000000 0.000000
vt 0.287499 0.302296
vt 0.000000 1.000000
vt 0.160661 0.699818
vt 1.000000 1.000000
vt 0.000000 0.000000
vt 0.649082 0.306524
vt 0.000000 0.000000
vt 0.864165 0.813560
vt 0.000000 1.000000
vt 0.695590 0.283271
vt 0.000000 0.000000
vt 1.000000 1.000000
vt 0.761122 0.663880
vt 0.000000 1.000000
vt 1.000000 0.000000
vt 0.327664 0.310752
vt 1.000000 0.000000
vt 1.000000 1.000000
vt 0.005327 0.952058
s 0
usemtl texture_mat
f 2/5/1 3/8/1 1/1/1
f 4/9/2 7/17/2 3/7/2
f 8/19/3 5/12/3 7/18/3
f 6/14/4 1/2/4 5/11/4
f 7/18/5 1/3/5 3/8/5
f 4/10/6 6/16/6 8/19/6
f 6/14/4 2/4/4 1/2/4
f 8/19/3 6/15/3 5/12/3
f 4/9/2 8/20/2 7/17/2
f 2/5/1 4/10/1 3/8/1
f 4/10/6 2/6/6 6/16/6
f 7/18/5 5/13/5 1/3/5
